<?xml version="1.0" encoding="UTF-8"?>
<svg id="Layer_2" xmlns="http://www.w3.org/2000/svg" width="974.8" height="156.9" version="1.1" viewBox="0 0 974.8 156.9">
  <!-- Generator: Adobe Illustrator 30.0.0, SVG Export Plug-In . SVG Version: 2.1.1 Build 123)  -->
  <defs>
    <style>
      .st0 {
        fill: #dd2a2a;
      }

      .st1, .st2 {
        fill: none;
        stroke: #e83434;
        stroke-miterlimit: 10;
      }

      .st2 {
        stroke-width: .3px;
      }
    </style>
  </defs>
  <path class="st1" d="M-120.2,49.2"/>
  <path class="st1" d="M260.1-94.3"/>
  <g>
    <polygon class="st0" points="92.4 125.8 49.4 70.4 91.6 24.1 92.4 125.8"/>
    <path class="st0" d="M48.6,68.6l2.1-43.6c13.4-2.5,20.3,8.4,17.2,22.2l-19.2,21.4Z"/>
    <polygon class="st0" points="94.1 69.5 94 23.5 143.9 16.5 94.1 69.5"/>
    <polygon class="st0" points="94.5 125.9 94.4 98.8 114.2 132.2 94.5 125.9"/>
    <polygon class="st0" points="94.4 71.1 133 30.8 151.8 32.7 94.4 71.1"/>
    <polygon class="st0" points="47.8 40.6 27.7 40.8 48.5 25.4 47.8 40.6"/>
    <polygon class="st0" points="94.6 72.7 139.1 43.4 158.8 48.6 94.6 72.7"/>
    <path class="st2" d="M135.7,37.9"/>
  </g>
  <g>
    <path d="M181.7,113.1c-5.9-3.6-10.3-8.7-13.2-15.4-2.9-6.6-4.3-14.4-4.3-23.5s1.8-19,5.5-25.6c3.7-6.7,8.5-11.5,14.4-14.6,5.9-3,12.4-4.6,19.5-4.6s10.4.7,14.9,2c4.5,1.3,8.9,3.3,13.1,5.8l-5.3,9.3c-6.9-4.3-14.3-6.5-22.1-6.5s-16,3-20.3,9c-4.4,6-6.6,14.2-6.6,24.5s2.3,19.1,6.9,25.2c4.6,6.1,11.3,9.1,20.3,9.1s8.6-.6,12.2-1.7c3.6-1.1,7.2-2.8,10.9-4.9l4.9,8.9c-4.7,2.7-9.3,4.8-13.7,6.2-4.5,1.4-9.4,2.1-14.8,2.1-8.8,0-16.2-1.8-22.1-5.4Z"/>
    <path d="M292.6,57.5v59.4h-10.2l-.7-4.4c-6.8,4-13.7,6-20.7,6s-9.8-1.5-13.2-4.6c-3.4-3-5.1-7.7-5.1-13.8v-41.2l11.4-1.3v39.2c0,2.9.4,5.2,1.1,7,.7,1.7,1.9,3,3.4,3.7,1.6.8,3.8,1.1,6.6,1.1,4.2,0,9.5-1.6,15.9-4.9v-44.8l11.4-1.3Z"/>
    <path d="M347.9,114.8c-4.6,2.5-9.5,3.7-14.6,3.7s-9.8-1.6-13-4.7c-3.2-3.1-4.8-7.8-4.8-14.1v-31.8h-11.7v-9h11.7v-13.1l11.4-1.9v15h19.6l-1.2,9h-18.4v29.9c0,7.4,2.7,11.1,8.2,11.1s3.1-.2,4.6-.5c1.5-.4,3.1-.9,4.9-1.7l3.2,8.1Z"/>
    <path d="M395.8,114.8c-4.6,2.5-9.5,3.7-14.6,3.7s-9.8-1.6-13-4.7c-3.2-3.1-4.8-7.8-4.8-14.1v-31.8h-11.7v-9h11.7v-13.1l11.4-1.9v15h19.6l-1.2,9h-18.4v29.9c0,7.4,2.7,11.1,8.2,11.1s3.1-.2,4.6-.5c1.5-.4,3.1-.9,4.9-1.7l3.2,8.1Z"/>
    <path d="M408.7,45.9c-1.2-.7-2.2-1.7-3-3-.8-1.2-1.1-2.6-1.1-4s.4-2.9,1.1-4.1c.8-1.2,1.7-2.2,3-3,1.2-.7,2.6-1.1,4-1.1s2.9.4,4.1,1.1c1.2.8,2.2,1.7,3,3,.7,1.2,1.1,2.6,1.1,4.1s-.4,2.7-1.1,4c-.8,1.2-1.7,2.2-3,3-1.2.8-2.6,1.1-4.1,1.1s-2.7-.4-4-1.1ZM407.1,116.9v-58l11.4-1.3v59.4h-11.4Z"/>
    <path d="M487.4,75.7v41.2h-11.4v-37c0-3.3-.3-5.8-1-7.6-.7-1.8-1.8-3.1-3.3-3.9-1.5-.8-3.6-1.2-6.3-1.2s-5.5.4-8.5,1.1c-3,.8-5.8,1.7-8.5,3v45.6h-11.4v-58l11.4-1.3v5.6c7.4-3.9,14.5-5.8,21.2-5.8,11.8,0,17.8,6.1,17.8,18.4Z"/>
    <path d="M550.6,109.9c3.3,1.1,5.8,2.8,7.5,4.9,1.7,2.1,2.5,4.9,2.5,8.2s-1.3,7.6-3.9,10.7c-2.6,3-6.3,5.4-11.2,7-4.9,1.6-10.6,2.5-17.4,2.5s-15.4-1.4-20.5-4.1c-5.1-2.7-7.7-6.8-7.7-12.3s.8-6.1,2.5-8.3c1.6-2.2,4-4.3,7.1-6.2-2.6-1.9-4-4.2-4-7.2s.5-3.4,1.5-4.9c1-1.5,2.6-3,4.8-4.6-3.2-1.8-5.6-4.1-7.2-7-1.6-2.9-2.4-6.3-2.4-10.1s1.2-8.9,3.6-12.1c2.4-3.2,5.6-5.5,9.6-6.9,4-1.4,8.4-2.1,13.2-2.1s5,.2,7.7.7l19.7-8.2,4,9.3-13.5,3.8c2.6,1.9,4.5,4.3,5.7,7,1.2,2.7,1.9,5.6,1.9,8.7,0,7.2-2.5,12.4-7.5,15.6-5,3.3-11.3,4.9-19,4.9s-6.4-.3-8.9-.9c-1.1,1.2-1.7,2.6-1.7,4.1s.4,1.7,1.1,2.3c.7.6,1.9,1,3.4,1.3,1.6.3,3.8.6,6.8.9l9.4.8c5.2.4,9.5,1.2,12.8,2.4ZM542.8,132c3.8-1.5,5.8-4,5.8-7.4s-.5-2.9-1.6-3.9c-1.1-1-2.7-1.8-4.9-2.4-2.2-.6-5.1-1-8.7-1.4l-9.4-.8c-2.8-.3-5.4-.7-7.8-1.2-1.7,1.5-3,3.1-3.9,4.8-.9,1.7-1.4,3.5-1.4,5.2,0,3.1,1.4,5.4,4.2,7,2.8,1.5,7.3,2.3,13.4,2.3s10.5-.8,14.4-2.3ZM517.2,69.2c-2.3,2.3-3.5,5.3-3.5,9s1.2,6.8,3.6,9c2.4,2.2,6.1,3.3,11.3,3.3,9.5,0,14.3-4,14.3-11.9s-1.3-7.1-3.8-9.4c-2.5-2.3-6.1-3.4-10.8-3.4s-8.7,1.1-11.1,3.4Z"/>
    <path class="st0" d="M660,31v85.9h-11.9V50.9c-1.3,3.8-3,7.8-5.2,11.9l-20.7,40.1h-11.8l-20.3-40.1c-1.1-2.2-2.2-4.3-3.2-6.4-1-2.1-1.8-3.9-2.5-5.4v65.8h-11.7V31h13.9l19.3,37.9c5.2,10.2,8.7,18,10.5,23.2,1-3,2.3-6.4,4-10.2,1.7-3.8,3.9-8.1,6.4-13l19.5-37.9h13.5Z"/>
    <path class="st0" d="M719.2,61.9c3.4,3.1,5.1,7.9,5.1,14.6v40.4h-10.3l-.7-5c-6.1,4.4-13.1,6.6-21.1,6.6s-6.4-.6-9-1.9c-2.6-1.3-4.7-3.1-6.2-5.4-1.5-2.3-2.2-5-2.2-8,0-4.9,1.7-8.9,5.2-12.1,3.4-3.2,8-5.6,13.8-7.1,5.7-1.5,12.1-2.3,19.1-2.5v-2.9c0-4-.8-6.9-2.4-8.7-1.6-1.8-4.3-2.7-8.1-2.7-6.4,0-13.2,2.3-20.1,6.9l-5-7.9c8.5-5.8,17.4-8.7,26.6-8.7s11.9,1.5,15.3,4.6ZM689.1,107.1c1.4,1.1,3.4,1.7,6.2,1.7,6,0,11.9-1.8,17.6-5.3v-13.8c-7.7.4-13.9,1.5-18.7,3.6-4.8,2-7.2,4.9-7.2,8.6s.7,4,2.1,5.2Z"/>
    <path class="st0" d="M747.1,116.6c-4.2-1.3-8-3.2-11.5-5.9l5-8.1c6.4,4.6,13.2,6.9,20.1,6.9s7-.7,9.1-2.1c2.1-1.4,3.2-3.4,3.2-6s-1-4-2.8-5.5c-1.9-1.5-5.2-2.9-10-4.2l-4.1-1.1c-6.2-1.6-10.7-3.7-13.6-6.3-2.9-2.6-4.3-6.1-4.3-10.4s.9-6.2,2.8-8.7c1.9-2.5,4.4-4.5,7.8-5.9,3.3-1.4,7-2.1,11.2-2.1s7.8.5,11.5,1.4c3.7.9,7.4,2.5,11.2,4.7l-4.6,8.1c-3.6-1.9-6.8-3.3-9.4-4-2.7-.7-5.5-1.1-8.5-1.1s-5.7.6-7.5,1.9c-1.8,1.3-2.7,3-2.7,5.1s.7,3.3,2.2,4.3c1.5,1,4,2,7.6,3l4.1,1.1c5,1.3,9.1,2.8,12.1,4.5,3,1.7,5.3,3.7,6.7,6,1.4,2.3,2.1,5.1,2.1,8.4s-.9,6.6-2.7,9.3c-1.8,2.7-4.5,4.8-8,6.3-3.5,1.5-7.8,2.3-12.9,2.3s-9.9-.6-14-1.9Z"/>
    <path class="st0" d="M833.3,114.8c-4.6,2.5-9.5,3.7-14.6,3.7s-9.8-1.6-13-4.7c-3.2-3.1-4.8-7.8-4.8-14.1v-31.8h-11.7v-9h11.7v-13.1l11.4-1.9v15h19.6l-1.2,9h-18.4v29.9c0,7.4,2.7,11.1,8.2,11.1s3.1-.2,4.6-.5c1.5-.4,3.1-.9,4.9-1.7l3.2,8.1Z"/>
    <path class="st0" d="M890.5,89.9h-40.4c0,6.6,1.7,11.4,4.8,14.4,3.1,3,7.2,4.5,12.1,4.5s6.6-.4,9.2-1.3c2.6-.9,5.5-2.3,8.7-4.1l4.4,8.1c-7.2,4.7-14.8,7-22.8,7s-15.3-2.4-20.3-7.1c-5.1-4.7-7.6-12.2-7.6-22.5s1.1-11.1,3.2-15.9c2.1-4.8,5.3-8.6,9.5-11.5,4.2-2.9,9.3-4.3,15.4-4.3s9.5,1,13.1,3.1c3.6,2.1,6.4,4.9,8.2,8.5,1.9,3.6,2.8,7.8,2.8,12.5l-.3,8.5ZM855.9,70.3c-2.6,2.7-4.3,6.5-5.1,11.3h28.9v-.5c0-4.9-1.1-8.7-3.4-11.1-2.3-2.5-5.5-3.7-9.6-3.7s-8.2,1.4-10.8,4.1Z"/>
    <path class="st0" d="M937.2,57.5c1.2.2,2.6.4,4,.8l-2.1,11.8c-3-1.1-5.7-1.6-8.2-1.6s-5.4.6-7.8,1.9c-2.4,1.2-4.7,3.6-6.9,7v39.5h-11.4v-58.2l11.4-1.2v8.3c2.2-2.8,4.8-5,7.7-6.4,2.9-1.5,6-2.2,9.3-2.2s2.9,0,4.1.3Z"/>
  </g>
</svg>